<svg xmlns="http://www.w3.org/2000/svg" xmlns:xlink="http://www.w3.org/1999/xlink" viewBox="0 0 257.31 174.436">
  <defs>
    <style>
      .spring-boot-cls-1 {
        fill: #77bc1f;
        stroke: rgba(255,255,255,0.37);
      }

      .spring-boot-cls-2 {
        filter: url(#git_commit);
      }
    </style>
    <filter id="git_commit" x="0" y="0" width="257.31" height="174.436" filterUnits="userSpaceOnUse">
      <feOffset dx="1" dy="1" input="SourceAlpha"/>
      <feGaussianBlur stdDeviation="2" result="blur"/>
      <feFlood flood-color="#fff"/>
      <feComposite operator="in" in2="blur"/>
      <feComposite in="SourceGraphic"/>
    </filter>
  </defs>
  <g class="spring-boot-cls-2" transform="matrix(1, 0, 0, 1, 0, 0)">
    <path id="git_commit-2" data-name="git_commit" class="spring-boot-cls-1" d="M208.36,61c-2.28-15.29-7-32.54-13.39-51.64A75.79,75.79,0,0,1,186.19,25,82.37,82.37,0,0,0,56.42,40.1,54.57,54.57,0,0,1,90.09,54.25a56.91,56.91,0,0,0-31.81-9.38,58.285,58.285,0,1,0,0,116.57h134.4A51.42,51.42,0,0,0,208.36,61ZM82.79,143.47a7,7,0,1,1,1.57-5.164,7,7,0,0,1-1.57,5.164Zm111.83-24.68c-20.34,27.09-63.76,18-91.61,19.26,0,0-4.93.28-9.9,1.1,0,0,1.88-.8,4.28-1.63,19.55-6.76,28.8-8.12,40.69-14.23,22.32-11.44,44.55-36.35,49.06-62.23-8.5,24.9-34.35,46.32-57.88,55C113.14,122,84,127.8,84,127.81l-1.18-.63C63,117.54,62.45,74.63,98.43,60.8c15.78-6.07,30.87-2.73,47.92-6.8,18.19-4.32,39.25-18,47.81-35.79C203.77,46.69,215.3,91.24,194.62,118.79Z" transform="translate(5.51 5.5)"/>
  </g>
</svg>
